HIERARCHY
ROOT hip
{
	OFFSET 0.000000 0.000000 0.000000
	CHANNELS 6 Xposition Yposition Zposition Xrotation Zrotation Yrotation 
	JOINT abdomen
	{
		OFFSET 0.000000 3.422050 0.000000
		CHANNELS 3 Xrotation Zrotation Yrotation 
		JOINT chest
		{
			OFFSET 0.000000 8.486693 -0.684411
			CHANNELS 3 Xrotation Zrotation Yrotation 
			JOINT neck
			{
				OFFSET 0.000000 10.266162 -0.273764
				CHANNELS 3 Xrotation Zrotation Yrotation 
				JOINT head
				{
					OFFSET 0.000000 3.148285 0.000000
					CHANNELS 3 Xrotation Zrotation Yrotation 
					End Site
					{
						OFFSET 0.000000 3.148289 0.000000
					}
				}
			}
			JOINT lCollar
			{
				OFFSET 3.422053 6.707223 -0.821293
				CHANNELS 3 Yrotation Zrotation Xrotation 
				JOINT lShldr
				{
					OFFSET 3.285171 0.000000 0.000000
					CHANNELS 3 Zrotation Yrotation Xrotation 
					JOINT lForeArm
					{
						OFFSET 10.129278 0.000000 0.000000
						CHANNELS 3 Yrotation Zrotation Xrotation 
						JOINT lHand
						{
							OFFSET 8.486692 0.000000 0.000000
							CHANNELS 3 Zrotation Yrotation Xrotation 
							End Site
							{
								OFFSET 4.106464 0.000000 0.000000
							}
						}
					}
				}
			}
			JOINT rCollar
			{
				OFFSET -3.558935 6.707223 -0.821293
				CHANNELS 3 Yrotation Zrotation Xrotation 
				JOINT rShldr
				{
					OFFSET -3.148289 0.000000 0.000000
					CHANNELS 3 Zrotation Yrotation Xrotation 
					JOINT rForeArm
					{
						OFFSET -10.266159 0.000000 0.000000
						CHANNELS 3 Yrotation Zrotation Xrotation 
						JOINT rHand
						{
							OFFSET -8.349810 0.000000 0.000000
							CHANNELS 3 Zrotation Yrotation Xrotation 
							End Site
							{
								OFFSET -4.106464 0.000000 0.000000
							}
						}
					}
				}
			}
		}
	}
	JOINT lThigh
	{
		OFFSET 5.338403 -1.642589 1.368821
		CHANNELS 3 Xrotation Zrotation Yrotation 
		JOINT lShin
		{
			OFFSET -2.053232 -20.121670 0.000000
			CHANNELS 3 Xrotation Zrotation Yrotation 
			JOINT lFoot
			{
				OFFSET 0.000000 -19.300380 -1.231939
				CHANNELS 3 Xrotation Yrotation Zrotation 
				End Site
				{
					OFFSET 0.000000 -2.463878 4.653993
				}
			}
		}
	}
	JOINT rThigh
	{
		OFFSET -5.338403 -1.642589 1.368821
		CHANNELS 3 Xrotation Zrotation Yrotation 
		JOINT rShin
		{
			OFFSET 2.053232 -20.121670 0.000000
			CHANNELS 3 Xrotation Zrotation Yrotation 
			JOINT rFoot
			{
				OFFSET 0.000000 -19.300380 -1.231939
				CHANNELS 3 Xrotation Yrotation Zrotation 
				End Site
				{
					OFFSET 0.000000 -2.463878 4.653993
				}
			}
		}
	}
}
MOTION
Frames: 6
Frame Time: 0.099977
0.000000 43.528500 0.000000 0.000000 0.000000 0.000000 0.000000 0.000000 0.000000 0.000000 0.000000 0.000000 0.000000 0.000000 0.000000 0.000000 0.000000 0.000000 0.000000 0.000000 0.000000 0.000000 0.000000 0.000000 0.000000 0.000000 0.000000 0.000000 0.000000 0.000000 0.000000 0.000000 0.000000 0.000000 0.000000 0.000000 0.000000 0.000000 0.000000 0.000000 0.000000 0.000000 0.000000 0.000000 0.000000 0.000000 0.000000 0.000000 0.000000 0.000000 0.000000 0.000000 0.000000 0.000000 0.000000 0.000000 0.000000 0.000000 0.000000 0.000000 
19.995884 4.831345 1.084351 -67.003799 0.000000 0.000000 -4.461693 0.000000 0.000000 26.257477 -0.118296 -0.639852 4.997208 0.000000 0.000000 1.998697 0.000000 0.000000 2.794475 1.600835 -8.792039 -50.658047 20.753338 6.400801 -30.344906 6.172877 31.222176 -10.480090 -37.554485 11.502769 -16.516224 -17.712782 15.006841 64.817360 -26.013384 4.374917 64.619293 -4.835697 33.700699 8.382948 37.589306 10.455659 -36.508934 26.550879 -45.419785 26.355572 -5.124136 -2.374338 1.095060 38.405766 6.449667 -85.991951 -42.864162 27.495386 105.074165 3.036519 0.486689 67.242851 28.241003 -44.616585 
19.995884 4.831345 1.162018 -68.496956 0.000000 0.000000 -2.827472 0.000000 0.000000 25.046841 -0.118307 -0.639820 4.463732 0.000000 0.000000 1.561365 0.000000 0.000000 3.171161 2.304513 -8.288317 -51.184731 20.891230 6.290815 -31.422003 6.194077 31.316084 -11.805575 -36.728077 12.178584 -16.298063 -19.119509 15.170438 65.561401 -26.422039 4.158993 65.360428 -4.505945 33.747902 9.760269 37.090462 11.052921 -35.284946 26.826210 -44.817066 26.784149 -5.257746 -2.441290 0.578654 37.643490 6.803811 -84.464554 -42.887997 27.527018 105.074165 3.036519 0.486689 67.242851 28.241003 -44.616585 
19.995884 4.831345 1.239685 -69.993179 0.000000 0.000000 -1.189219 0.000000 0.000000 23.834576 -0.118318 -0.639786 3.929799 0.000000 0.000000 1.123784 0.000000 0.000000 3.542158 3.012047 -7.788538 -51.712315 21.028208 6.179353 -32.500313 6.213539 31.410486 -13.107015 -35.888142 12.824505 -16.073246 -20.528252 15.341527 66.310265 -26.828377 3.936243 66.101425 -4.175415 33.790836 11.123865 36.579704 11.631948 -34.053383 27.090242 -44.205704 27.213051 -5.390876 -2.509269 0.073012 36.878242 7.146011 -82.933189 -42.912495 27.557840 105.074165 3.036519 0.486689 67.242851 28.241007 -44.616585 
19.995884 4.831345 1.317352 -71.491966 0.000000 0.000000 0.452410 0.000000 0.000000 22.620951 -0.118327 -0.639753 3.395436 0.000000 0.000000 0.685965 0.000000 0.000000 3.907476 3.723265 -7.292654 -52.240768 21.164240 6.066412 -33.579632 6.231245 31.505320 -14.384962 -35.035526 13.441048 -15.841371 -21.938541 15.520505 67.063942 -27.232254 3.706622 66.842216 -3.844190 33.829464 12.473550 36.057510 12.192584 -32.814659 27.342710 -43.586071 27.642279 -5.523518 -2.578274 -0.422264 36.110191 7.476652 -81.398399 -42.937634 27.587833 105.074165 3.036519 0.486689 67.242851 28.240999 -44.616577 
19.995884 4.831345 1.395019 -72.992798 0.000000 0.000000 2.096751 0.000000 0.000000 21.406223 -0.118337 -0.639720 2.860661 0.000000 0.000000 0.247921 0.000000 0.000000 4.267129 4.437996 -6.800617 -52.770092 21.299320 5.952007 -34.659775 6.247181 31.600536 -15.639997 -34.171047 14.028755 -15.602001 -23.349899 15.707779 67.822479 -27.633547 3.470094 67.582840 -3.512361 33.863808 13.809191 35.524376 12.734738 -31.569183 27.583368 -42.958553 28.071810 -5.655655 -2.648300 -0.907559 35.339554 7.796111 -79.860718 -42.963398 27.616951 105.074165 3.036519 0.486689 67.242851 28.241001 -44.616581 
